<svg width="138" height="32" xmlns="http://www.w3.org/2000/svg">
 <defs>
  <linearGradient id="a" y2="100%" x2="50%" y1="0%" x1="50%">
   <stop offset="0%" stop-color="#00BFFB"/>
   <stop offset="100%" stop-color="#0270D7"/>
  </linearGradient>
  <linearGradient id="b" y2="100%" x2="50%" y1="0%" x1="50%">
   <stop offset="0%" stop-opacity="0.48" stop-color="#1F232A"/>
   <stop offset="100%" stop-opacity="0" stop-color="#1F2329"/>
  </linearGradient>
  <linearGradient id="c" y2="38.807%" x2="-3.169%" y1="103.739%" x1="87.665%">
   <stop offset="0%" stop-opacity="0" stop-color="#FFF"/>
   <stop offset="100%" stop-opacity="0.64" stop-color="#FFF"/>
  </linearGradient>
  <linearGradient id="d" y2="26.355%" x2="109.871%" y1="111.262%" x1="-14.104%">
   <stop offset="0%" stop-color="#0270D7"/>
   <stop offset="100%" stop-opacity="0" stop-color="#0270D7"/>
  </linearGradient>
 </defs>
 <g>
  <title>background</title>
  <rect fill="none" id="canvas_background" height="34" width="140" y="-1" x="-1"/>
 </g>
 <g>
  <title>Layer 1</title>
  <g id="svg_1" fill-rule="evenodd" fill="none">
   <path id="svg_2" d="m6,2l-8,13.999l8,14.001l16,0l8,-14.001l-8,-13.999l-16,0z" transform="rotate(90 14.000000000000002,16) " fill="url(#a)"/>
   <path id="svg_3" d="m14,0l0,32l-14,-8l0,-16l14,-8z" fill="url(#b)"/>
   <path id="svg_4" d="m28,24l-28,-16l14.001,-8l13.999,8l0,16z" fill="url(#c)"/>
   <path id="svg_5" d="m28,8l-28,15.978l0,-15.978l14.001,-8l13.999,8z" fill="url(#d)" fill-opacity="0.48"/>
  </g>
  <text stroke="#000" transform="matrix(1.0026044845581055,0,0,1,-0.4548081159591675,0) " xml:space="preserve" text-anchor="start" font-family="Helvetica, Arial, sans-serif" font-size="24" id="svg_6" y="23.763325" x="78.62602" stroke-width="0" fill="#000000"/>
  <text style="cursor: move;" xml:space="preserve" text-anchor="start" font-family="Helvetica, Arial, sans-serif" font-size="24" id="svg_10" y="24.013351" x="34.37133" stroke-width="0" stroke="#ffffff" fill="#ffffff">云堤科技</text>
 </g>
</svg>